. 
 
http://www.torrenting.com          :     Once & For all ;)


               www . Torrenting . Com 

(((((((((((((= Enjoy No RAR releases =))))))))))))))))))))


...................................NFO:....................................

.[IMG]http://img716.imageshack.us/img716/3947/91vnjuxvfylaa1500.jpg[/IMG]


[color=blue][size=4][b]A.Very.Harold.And.Kumar.Christmas.2011.EC.Extra.Dope.Edition.BDRip.XVID.AC3.HQ.Hive-CM8[/b][/size][/color]


[b]Thx Hive

CM8 Doing it right the first time :D


Source: Extended Cut 2D Bluray

Encode:
well who would of thought they make 3 different bluray of that movie, only one bluray contains the
7 mins longer version. got the wrong one first when i realized there is a longer version.
so here is the extended Extra Dope Version, hopefully some more nude scenes too.  :P
anyway
enjoy

Video: 720x304 @bitrate 1700 2pass
Audio: English DTS to AC3 5.1 @448
Sample: Yes, included[/b]
 
http://www.imdb.com/title/tt1268799/


General
Complete name                  : A.Very.Harold.And.Kumar.Christmas.2011.EC.Extra.Dope.Edition.BDRip.XVID.AC3.HQ.Hive-CM8.avi
Format                         : AVI
Format/Info                    : Audio Video Interleave
File size                      : 1.45 GiB
Duration                       : 1h 36mn
Overall bit rate               : 2 158 Kbps
Writing application            : Nandub v1.0rc2
Writing library                : Nandub build 1853/release

Video
ID                             : 0
Format                         : MPEG-4 Visual
Format profile                 : Advanced Simple@L5
Format settings, BVOP          : 2
Format settings, QPel          : Yes
Format settings, GMC           : No warppoints
Format settings, Matrix        : Default (H.263)
Muxing mode                    : Packed bitstream
Codec ID                       : XVID
Codec ID/Hint                  : XviD
Duration                       : 1h 36mn
Bit rate                       : 1 701 Kbps
Width                          : 720 pixels
Height                         : 304 pixels
Display aspect ratio           : 2.40:1
Frame rate                     : 23.976 fps
Color space                    : YUV
Chroma subsampling             : 4:2:0
Bit depth                      : 8 bits
Scan type                      : Progressive
Compression mode               : Lossy
Bits/(Pixel*Frame)             : 0.324
Stream size                    : 1.14 GiB (79%)
Writing library                : XviD 1.2.1 (UTC 2008-12-04)

Audio
ID                             : 1
Format                         : AC-3
Format/Info                    : Audio Coding 3
Mode extension                 : CM (complete main)
Codec ID                       : 2000
Duration                       : 1h 36mn
Bit rate mode                  : Constant
Bit rate                       : 448 Kbps
Channel(s)                     : 6 channels
Channel positions              : Front: L C R, Side: L R, LFE
Sampling rate                  : 48.0 KHz
Bit depth                      : 16 bits
Compression mode               : Lossy
Stream size                    : 308 MiB (21%)
Alignment                      : Split accross interleaves
Interleave, duration           : 42 ms (1.00 video frame)
Interleave, preload duration   : 500 ms


Plot:
Stoner buds Harold and Kumar cause a holiday fracas by inadvertently
burning down Harold's father-in-law's prize Christmas tree.


Cast:
Kal Penn              ...    Kumar
John Cho              ...    Harold
Patton Oswalt         ...    Mall Santa
Neil Patrick Harris   ...    Himself


[img]http://img849.imageshack.us/img849/8524/28592108.png[/img]
[img]http://img201.imageshack.us/img201/498/kukuv.png[/img]
[img]http://img821.imageshack.us/img821/7060/kukukkkuukukukkukuuu.png[/img]
[img]http://img252.imageshack.us/img252/9192/kukukkkuukukukkuuu.png[/img]
[img]http://img440.imageshack.us/img440/938/kukukkkuukukukuu.png[/img]
[img]http://img837.imageshack.us/img837/2918/kukukkkuukukuu.png[/img]
[img]http://img860.imageshack.us/img860/5369/kukukkkuukuu.png[/img]
[img]http://img846.imageshack.us/img846/4194/kukukkukuu.png[/img]
[img]http://img580.imageshack.us/img580/1958/kukukkuu.png[/img]
[img]http://img190.imageshack.us/img190/3112/kukukut.png[/img]



Greetz

ViSiON,SPK,SceneLovers,PRESTiGE,SANTi,3LT0N,YanKeeS,COPYxRIGHT,THC,T0XiC
D2U,LKRG,Feel-Free,FLAWL3SS,WBZ,BHRG,26K,NOVA,SeToNeUp,TED,MAGNET,jtr
Unevano,Rapeseed,SAFC,goldadvance,KaN1vE,Pinnz,Wayne
Mr Hive,and most P2P groups
Great Work Guys :D

LOOKING FOR ANYTHING YOU WANT TO LOOK AND SOUND BETTER

CM8@hushmail.com